<?xml version="1.0" standalone="no"?>
<!DOCTYPE svg PUBLIC "-//W3C//DTD SVG 20010904//EN"
 "http://www.w3.org/TR/2001/REC-SVG-20010904/DTD/svg10.dtd">
<svg version="1.0" xmlns="http://www.w3.org/2000/svg"
 width="403.000000pt" height="440.000000pt" viewBox="0 0 403.000000 440.000000"
 preserveAspectRatio="xMidYMid meet">

<g transform="translate(0.000000,440.000000) scale(0.100000,-0.100000)"
fill="#708d9e" stroke="none">
<path d="M1366 4233 c-1 -1 -29 -4 -61 -6 -33 -2 -67 -7 -75 -10 -8 -4 -33
-13 -55 -21 -22 -8 -39 -19 -37 -26 1 -6 -2 -9 -7 -6 -13 8 -108 -56 -135 -90
-11 -15 -29 -36 -38 -46 -10 -10 -18 -25 -18 -33 0 -8 -4 -15 -9 -15 -10 0
-50 -123 -53 -163 -3 -30 -9 -33 -93 -41 -67 -6 -138 -32 -177 -66 -68 -59
-141 -147 -132 -161 3 -5 1 -9 -5 -9 -18 0 -33 -71 -34 -163 0 -105 5 -157 16
-157 4 0 7 -7 7 -16 0 -8 4 -12 10 -9 6 3 7 -1 4 -10 -4 -9 5 -30 21 -51 15
-19 25 -41 22 -48 -3 -7 -27 -26 -54 -41 -26 -16 -54 -35 -61 -42 -7 -7 -20
-13 -28 -13 -8 0 -14 -4 -14 -8 0 -13 -36 -53 -42 -47 -7 7 -29 -20 -32 -37
-3 -21 -17 -39 -25 -33 -5 2 -19 -10 -32 -27 -13 -17 -29 -36 -35 -42 -6 -6
-14 -24 -18 -39 -3 -15 -11 -27 -16 -27 -5 0 -7 -6 -4 -13 2 -7 -2 -30 -11
-50 -8 -20 -15 -50 -15 -66 0 -16 -3 -32 -8 -34 -15 -10 -1 -183 20 -247 16
-49 75 -161 100 -187 12 -12 17 -27 13 -34 -5 -7 -4 -10 3 -5 6 3 24 -2 40
-11 23 -15 29 -24 26 -48 -2 -16 -8 -31 -13 -33 -12 -4 -107 -94 -104 -99 1
-1 -9 -28 -23 -60 -14 -31 -23 -65 -21 -74 3 -11 0 -16 -7 -13 -15 6 -21 -37
-20 -156 1 -104 4 -117 28 -172 9 -21 16 -40 16 -44 0 -3 9 -17 20 -31 11 -14
20 -32 20 -39 0 -38 155 -156 245 -186 22 -7 43 -17 47 -22 9 -14 3 -67 -10
-93 -37 -69 -10 -302 43 -381 14 -20 25 -42 25 -49 0 -7 7 -13 15 -13 8 0 15
-4 15 -9 0 -5 16 -26 35 -47 19 -20 35 -33 35 -28 0 5 4 5 8 -1 21 -28 102
-83 142 -94 25 -7 54 -17 65 -22 11 -4 114 -10 229 -12 138 -3 211 -9 215 -16
4 -6 7 -49 7 -96 -1 -59 3 -86 11 -90 23 -8 336 -7 342 2 3 4 17 9 30 11 14 1
32 8 40 16 9 7 24 16 34 19 9 4 17 13 17 21 0 7 12 21 26 31 14 9 23 19 20 22
-3 3 1 11 9 17 8 6 16 22 19 36 2 14 9 37 14 51 6 15 9 29 6 31 -2 3 -4 72 -3
154 0 82 0 373 -1 647 0 498 0 498 -22 537 -13 22 -29 38 -35 35 -7 -2 -13 1
-13 8 0 7 -18 13 -47 14 -76 2 -79 3 -78 37 1 38 -45 92 -86 101 -32 7 -122
-22 -113 -36 3 -5 1 -9 -4 -9 -23 0 -37 -101 -21 -142 6 -15 22 -34 35 -43 14
-9 23 -19 20 -23 -3 -5 29 -4 71 1 63 7 78 6 92 -7 21 -19 20 -8 21 -235 0
-199 -7 -228 -43 -171 -10 16 -27 32 -38 35 -10 4 -19 10 -19 15 0 14 -230
245 -241 242 -5 -1 -9 2 -9 6 0 5 -20 30 -45 56 -25 27 -42 53 -38 59 4 6 1 7
-6 3 -16 -10 -114 88 -116 115 -1 10 7 26 17 36 10 9 18 22 18 30 0 7 6 13 13
13 7 0 38 25 70 56 46 45 55 59 46 70 -6 8 -18 14 -25 14 -8 0 -14 4 -14 8 0
5 -9 18 -20 30 -37 39 -7 23 37 -20 l44 -43 24 30 c13 17 24 27 25 23 0 -10
82 82 98 111 8 12 9 20 3 16 -6 -3 -11 -2 -11 4 0 5 5 13 11 17 7 4 9 23 6 49
-4 29 -2 47 7 54 7 6 54 10 112 9 l99 -2 0 -108 c0 -99 2 -110 22 -128 40 -34
56 -39 90 -25 17 7 34 11 36 8 3 -2 8 5 12 16 3 12 9 21 13 21 4 0 5 45 2 101
-3 55 -3 103 -1 105 3 2 4 382 2 844 l-2 839 -26 52 c-29 61 -71 119 -86 119
-5 0 -20 11 -33 26 -13 14 -24 20 -24 14 0 -7 -5 -8 -12 -3 -7 4 -16 8 -20 9
-5 1 -10 3 -13 4 -3 1 -8 3 -12 5 -5 1 -15 4 -23 8 -26 10 -80 14 -80 6 0 -5
-6 -6 -13 -3 -13 5 -187 11 -191 7z m322 -199 c13 -2 20 -9 17 -14 -3 -6 -1
-10 4 -10 6 0 10 -3 10 -7 -1 -5 -1 -12 0 -18 0 -5 2 -340 3 -743 3 -724 3
-732 -17 -739 -11 -4 -134 -7 -273 -8 l-253 0 -22 24 c-12 13 -15 20 -7 16 12
-7 13 -6 3 7 -7 8 -10 18 -6 21 3 4 -2 9 -11 13 -9 3 -14 10 -11 14 3 4 -2 13
-10 20 -7 6 -11 19 -8 27 4 11 2 14 -5 9 -6 -3 -20 1 -31 11 -15 13 -17 19 -8
25 8 5 5 8 -10 8 -12 0 -29 7 -37 16 -9 8 -26 16 -39 18 -13 1 -29 6 -36 10
-7 4 -15 5 -18 2 -4 -3 -15 2 -26 11 -11 10 -17 13 -14 7 4 -7 0 -14 -7 -17
-8 -3 -17 -1 -19 6 -3 9 -8 9 -19 -1 -9 -7 -20 -12 -24 -11 -5 1 -12 0 -16 -1
-5 -1 -11 -3 -15 -4 -35 -10 -126 -66 -107 -66 5 -1 -1 -6 -13 -13 -12 -7 -22
-15 -22 -19 -2 -14 -36 -83 -44 -89 -4 -3 -9 -31 -10 -62 -2 -31 -7 -60 -10
-64 -4 -3 -7 -11 -7 -17 0 -6 4 -4 9 3 8 12 11 9 16 -12 4 -15 5 -38 3 -52 -3
-15 -1 -22 5 -18 6 4 8 0 4 -10 -4 -12 -2 -14 11 -10 9 3 14 2 9 -2 -4 -5 0
-17 10 -27 9 -10 12 -18 7 -18 -5 0 3 -8 16 -17 14 -10 35 -26 48 -37 66 -58
183 -76 263 -42 20 8 39 12 43 9 3 -4 6 1 6 10 0 9 12 18 31 22 23 5 28 9 18
16 -12 7 -12 9 0 9 15 0 61 45 61 60 0 5 10 18 22 29 16 16 25 18 35 10 9 -8
13 -8 13 -1 0 7 11 7 34 1 19 -5 38 -9 43 -8 4 1 18 1 31 0 19 -1 22 -6 20
-33 -1 -24 -15 -46 -49 -80 -26 -27 -53 -48 -61 -48 -10 0 -10 -2 1 -9 11 -7
9 -10 -7 -15 -11 -4 -30 -21 -41 -39 -11 -18 -21 -28 -21 -23 0 12 -60 -51
-60 -64 0 -5 -5 -10 -10 -10 -6 0 -23 -14 -39 -32 l-29 -32 -157 -1 -157 0
-52 48 c-167 156 -267 261 -295 311 -18 31 -36 56 -41 56 -5 0 -7 7 -4 15 4 8
1 22 -6 30 -10 12 -10 15 1 15 11 1 10 4 -2 13 -9 7 -14 21 -11 32 2 11 5 40
6 65 2 25 4 47 5 50 4 7 12 41 16 66 1 12 9 32 16 45 7 13 14 29 15 35 1 6 10
24 19 38 14 20 20 24 26 14 7 -10 9 -10 9 2 0 15 74 100 87 100 3 0 14 6 22
14 9 8 23 16 31 18 12 2 109 67 145 95 6 5 15 8 20 8 18 0 75 -27 75 -35 0 -4
16 -7 35 -6 19 1 35 -3 35 -9 0 -11 264 -11 405 0 39 3 97 7 131 9 61 4 104
19 104 36 0 6 6 10 14 10 27 0 36 87 10 97 -15 5 -15 7 0 15 20 11 9 36 -36
79 -30 30 -35 30 -119 13 -18 -3 -32 -17 -45 -44 -17 -36 -51 -58 -78 -51 -5
1 -88 2 -185 2 -181 0 -248 8 -291 37 -14 9 -28 15 -32 14 -5 -1 -7 1 -5 6 3
9 -40 52 -46 46 -3 -3 -11 9 -18 25 -8 17 -19 31 -24 31 -12 0 -15 22 -19 115
-1 33 3 63 9 67 5 4 11 12 11 18 1 5 2 14 3 18 2 18 68 81 101 97 38 19 109
28 128 16 8 -5 14 -36 17 -77 6 -116 13 -138 48 -157 32 -17 117 -20 117 -4 0
5 4 6 10 2 5 -3 16 8 24 24 19 37 50 42 209 37 64 -2 117 1 117 5 0 5 9 9 19
9 33 0 52 12 63 39 8 23 12 414 4 510 -2 28 2 35 24 45 26 11 120 11 168 0z
m-363 -7 c2 -7 6 -97 8 -201 5 -237 15 -223 -149 -221 -66 0 -125 4 -132 9
-21 13 -8 223 15 249 12 14 13 18 3 12 -12 -7 -13 -6 -3 7 7 8 11 18 8 21 -3
4 -2 5 2 2 10 -8 35 34 27 47 -4 7 -3 8 4 4 6 -4 17 2 24 14 7 11 18 20 25 20
6 0 13 3 15 8 14 31 144 56 153 29z m-363 -1470 c3 -6 4 -15 2 -19 -3 -5 -2
-8 3 -7 17 3 33 -1 31 -8 -1 -5 4 -21 10 -36 20 -47 -2 -131 -44 -169 -29 -25
-94 -40 -112 -25 -8 7 -17 10 -19 8 -2 -1 -16 2 -31 8 -56 23 -80 139 -42 203
20 35 74 73 89 63 5 -3 12 -1 15 4 8 12 88 -6 98 -22z m283 -447 c3 -6 -1 -7
-9 -4 -18 7 -21 14 -7 14 6 0 13 -4 16 -10z m-705 -303 c0 -23 -118 -137 -144
-139 -71 -5 -90 12 -71 66 8 22 11 44 8 49 -3 6 -1 7 5 3 6 -4 25 12 44 37 18
25 46 54 62 65 l29 21 33 -42 c19 -23 34 -50 34 -60z m524 -157 c43 -44 80
-80 81 -80 4 0 185 -182 185 -186 0 -3 63 -67 140 -143 77 -76 137 -141 133
-145 -3 -3 -1 -6 5 -6 6 0 35 -23 64 -52 l53 -52 -2 -196 c-3 -411 -3 -411
-28 -436 -19 -19 -33 -22 -103 -22 -45 0 -85 4 -88 9 -3 6 -5 131 -5 279 1
187 -2 270 -9 275 -6 4 -9 13 -6 21 3 8 1 14 -5 14 -6 0 -51 40 -101 90 -49
49 -94 87 -99 84 -5 -3 -8 0 -7 8 2 7 -4 12 -12 10 -8 -2 -12 0 -8 4 4 3 -19
34 -52 68 -33 33 -60 64 -60 68 0 3 -9 10 -21 13 -11 4 -19 9 -16 11 7 7 -58
74 -71 74 -7 0 -12 7 -12 15 0 8 -4 15 -9 15 -5 0 -27 18 -49 41 -23 22 -47
42 -54 43 -7 1 -18 4 -23 8 -28 18 -144 -29 -130 -52 3 -4 -1 -13 -9 -19 -8
-7 -17 -28 -20 -47 -5 -24 -15 -39 -32 -46 -13 -6 -24 -14 -24 -18 0 -4 -21
-8 -47 -9 -79 -1 -192 39 -216 76 -5 8 -12 11 -18 8 -5 -4 -9 2 -9 12 0 10
-11 31 -25 48 -17 18 -25 39 -23 55 3 24 5 25 63 22 59 -2 142 15 143 31 2 12
29 37 41 37 5 0 34 31 63 69 29 39 60 72 68 74 8 3 74 5 145 6 l130 1 79 -80z
m-359 -350 c3 -5 1 -10 -4 -10 -6 0 -11 5 -11 10 0 6 2 10 4 10 3 0 8 -4 11
-10z m210 -50 c4 -6 11 -8 16 -4 5 3 8 2 7 -3 -3 -9 54 -74 115 -131 40 -38
46 -62 22 -86 -8 -8 -15 -19 -15 -24 0 -24 -42 -46 -83 -44 -41 3 -60 -8 -103
-60 -26 -32 -28 -118 -2 -102 6 4 8 2 4 -4 -8 -13 13 -62 27 -62 6 0 19 -7 29
-17 10 -9 18 -11 18 -5 0 10 43 7 62 -4 4 -3 8 0 8 5 0 6 9 11 20 11 11 0 20
5 20 11 0 5 5 7 12 3 6 -4 8 -3 5 3 -4 6 0 16 8 23 8 7 15 21 15 32 0 13 4 17
13 12 9 -6 9 -5 0 8 -11 12 -9 18 7 33 11 10 20 22 20 27 0 16 65 69 69 57 2
-8 5 -8 10 0 5 7 24 -8 50 -39 24 -28 46 -48 50 -46 8 5 8 3 11 -163 2 -104
-1 -135 -11 -142 -17 -12 -363 -9 -406 3 -18 5 -33 13 -33 18 0 6 -7 10 -16
10 -39 0 -170 131 -179 180 -2 10 -9 29 -16 42 -16 29 -19 79 -7 95 5 6 5 14
0 17 -10 6 -8 67 3 85 4 8 2 17 -6 22 -11 7 -11 9 2 9 15 0 47 55 41 72 -1 5
1 7 6 7 19 -3 25 2 12 11 -13 9 -13 10 0 10 8 0 44 31 80 68 61 64 101 85 115
62z"/>
<path d="M1368 2933 c7 -3 16 -2 19 1 4 3 -2 6 -13 5 -11 0 -14 -3 -6 -6z"/>
<path d="M1330 2824 l0 -102 84 -1 84 -2 -1 100 -1 100 -83 3 -83 3 0 -101z"/>
<path d="M1353 2693 c-9 -3 -13 -32 -13 -94 l0 -89 80 0 80 0 0 83 c0 51 -5
88 -12 95 -12 12 -110 16 -135 5z"/>
<path d="M2508 4234 c-2 -1 -35 -3 -73 -5 -39 -1 -75 -6 -82 -11 -6 -5 -24
-13 -40 -17 -15 -5 -27 -14 -25 -20 1 -7 -2 -9 -9 -5 -7 4 -18 -1 -26 -11 -7
-11 -13 -15 -13 -11 0 4 -16 -8 -35 -26 -46 -44 -97 -142 -81 -159 8 -9 8 -10
-1 -5 -9 5 -12 -205 -13 -923 0 -745 2 -930 12 -934 10 -4 9 -6 -1 -6 -17 -1
24 -39 56 -52 26 -10 97 16 88 31 -3 6 0 10 7 10 10 0 14 22 14 89 0 49 -4 87
-8 85 -5 -3 0 10 10 28 l19 33 98 -3 c55 -1 100 -4 101 -5 2 -2 5 -35 7 -75 2
-39 10 -79 17 -87 7 -8 9 -15 5 -15 -4 0 6 -14 24 -30 17 -17 31 -35 31 -41 0
-5 5 -7 10 -4 6 3 13 -1 16 -9 3 -9 16 -16 28 -16 15 0 17 -3 7 -9 -9 -6 -10
-10 -2 -16 13 -7 98 82 93 98 -1 5 1 6 6 3 4 -2 13 4 20 14 10 16 5 24 -34 59
-25 22 -45 43 -44 47 1 4 -2 10 -8 13 -5 3 -12 18 -15 33 -6 24 -4 27 31 31
32 5 90 4 156 -1 11 -1 17 -5 13 -8 -3 -3 10 -21 29 -40 19 -19 34 -39 34 -44
0 -6 7 -10 15 -10 9 0 26 -11 39 -24 20 -22 53 -35 94 -38 6 -1 12 -5 12 -10
0 -14 129 0 153 17 12 8 27 15 34 15 18 0 73 50 73 67 0 8 4 11 10 8 5 -3 21
18 36 47 26 50 34 95 33 178 0 36 -25 121 -38 130 -4 3 -17 20 -30 38 -12 17
-29 32 -37 32 -8 0 -14 4 -14 8 0 11 -71 45 -78 38 -3 -3 -10 -2 -16 4 -15 11
-96 30 -96 21 0 -3 -13 -6 -29 -7 -32 -1 -98 -32 -147 -69 -18 -14 -48 -57
-69 -98 l-38 -74 -76 1 -77 1 4 92 c4 75 1 95 -12 108 -9 9 -16 13 -16 8 0 -4
-31 -7 -70 -5 l-70 4 0 -91 0 -91 63 0 c34 0 69 -5 77 -10 10 -7 -9 -10 -65
-11 -44 0 -125 -2 -181 -5 -83 -4 -103 -2 -114 11 -10 12 -13 128 -15 548 0
293 -5 538 -9 545 -4 7 -2 12 4 12 6 0 9 19 8 50 -2 27 -7 50 -11 50 -5 0 -5
5 -2 11 4 5 8 71 10 145 3 172 5 176 130 182 75 4 85 2 85 -12 0 -10 5 -14 10
-11 6 3 10 1 10 -4 0 -6 -4 -11 -8 -11 -4 0 -6 -111 -5 -246 3 -188 7 -253 18
-274 8 -15 12 -30 9 -32 -3 -3 15 -10 39 -17 25 -6 51 -13 59 -16 9 -4 23 1
32 10 9 9 16 12 16 6 0 -6 38 -10 103 -10 139 1 134 1 140 -20 6 -24 64 -61
95 -61 33 0 79 26 93 53 7 12 12 52 11 89 -1 36 2 78 8 92 9 25 12 25 67 19
48 -5 66 -13 109 -47 28 -23 49 -47 46 -54 -2 -7 1 -12 6 -12 5 0 15 -12 21
-27 13 -33 21 -163 11 -163 -5 0 -11 -12 -15 -27 -3 -15 -10 -30 -14 -33 -4
-3 -17 -20 -30 -38 -14 -21 -29 -31 -38 -28 -8 3 -12 2 -9 -3 6 -9 -29 -27
-89 -45 -41 -13 -441 -21 -470 -10 -7 3 -17 19 -20 35 -7 30 -42 62 -57 53 -4
-3 -8 -1 -8 3 0 10 -47 10 -57 0 -3 -4 -17 -7 -30 -7 -14 0 -21 -4 -18 -10 3
-5 2 -10 -2 -10 -5 0 -17 -13 -26 -30 -23 -38 -22 -140 1 -140 10 0 12 -3 4
-13 -8 -9 -4 -15 14 -24 18 -8 22 -8 17 0 -4 7 0 6 10 -1 9 -8 22 -10 28 -6 8
5 9 3 4 -6 -6 -10 5 -12 54 -8 33 2 61 0 61 -4 0 -10 473 -4 538 7 23 4 42 13
42 19 0 8 12 12 28 11 34 -2 54 -13 47 -26 -4 -5 1 -9 10 -9 8 0 39 -15 68
-33 28 -19 71 -46 95 -61 23 -14 42 -30 42 -35 0 -6 9 -13 20 -16 11 -3 20
-13 20 -21 0 -8 3 -14 8 -14 4 0 18 -17 32 -37 14 -20 31 -43 38 -50 7 -7 11
-13 9 -13 -3 0 -1 -16 5 -36 20 -74 25 -171 12 -229 -3 -16 -7 -36 -7 -42 0
-7 -5 -13 -10 -13 -5 0 -7 -7 -3 -15 3 -8 1 -15 -3 -15 -5 0 -14 -12 -19 -27
-6 -16 -27 -45 -47 -65 -22 -22 -34 -42 -29 -49 4 -7 3 -9 -4 -6 -10 7 -152
-127 -152 -144 0 -4 -9 -10 -19 -14 -11 -3 -39 -25 -63 -48 l-43 -42 -102 0
c-57 0 -103 -2 -103 -5 0 -3 -22 -3 -49 -2 -47 4 -53 8 -155 108 -59 57 -113
104 -121 104 -7 0 -16 -8 -20 -17 -3 -10 -23 -38 -45 -63 -22 -24 -40 -48 -40
-52 0 -4 13 -20 30 -34 16 -15 27 -31 24 -35 -3 -5 3 -6 12 -2 14 5 16 3 10
-12 -4 -11 -4 -17 -1 -13 9 9 61 -42 57 -56 -2 -6 -1 -8 3 -4 8 8 35 -15 35
-29 0 -9 -72 -84 -154 -161 -25 -24 -46 -48 -46 -53 0 -5 -4 -9 -8 -9 -4 0
-47 -38 -94 -85 -47 -47 -91 -85 -98 -85 -7 0 -10 -8 -7 -19 3 -12 0 -18 -7
-16 -6 2 -33 -23 -61 -55 -52 -60 -70 -74 -86 -65 -12 8 -2 363 12 397 13 31
39 39 94 29 50 -9 147 23 143 47 0 4 1 9 2 12 26 68 7 151 -41 175 -38 20
-109 19 -135 -3 -28 -22 -47 -59 -38 -74 4 -6 3 -8 -4 -4 -6 4 -12 -3 -14 -16
-2 -17 -9 -23 -25 -22 -13 0 -23 -2 -23 -6 0 -3 -9 -6 -20 -7 -11 -1 -20 2
-20 6 0 5 -20 -1 -45 -12 -31 -14 -47 -29 -54 -50 -7 -18 -11 -250 -11 -637 0
-334 -2 -614 -6 -623 -3 -8 -1 -18 5 -22 6 -3 8 -17 5 -32 -5 -18 -3 -24 5
-19 14 9 15 -6 1 -20 -12 -12 22 -81 53 -107 12 -10 16 -16 10 -12 -7 3 -13 1
-13 -4 0 -6 7 -11 16 -11 8 0 13 -4 10 -9 -8 -12 24 -36 102 -77 13 -7 34 -11
48 -9 13 1 21 -1 19 -5 -3 -4 67 -7 155 -7 135 1 161 3 164 17 8 32 0 108 -14
126 -14 18 -14 18 3 5 15 -12 17 -10 17 23 0 35 4 39 43 39 9 0 17 4 17 9 0 5
4 7 9 4 14 -9 334 -10 361 -1 14 4 32 9 40 10 31 3 127 53 176 93 53 42 141
158 154 203 4 14 13 36 19 47 11 20 22 93 25 170 2 42 -23 152 -34 152 -4 0
-7 14 -6 31 2 33 26 53 79 64 15 3 25 10 22 15 -6 10 7 14 33 11 7 -1 48 33
91 77 84 83 142 179 119 194 -10 6 -9 8 3 8 29 0 54 168 37 240 -4 14 -7 32
-7 40 -1 13 -2 13 -11 0 -12 -19 -13 -8 0 24 6 16 6 27 0 31 -6 4 -10 14 -10
24 0 10 -9 26 -20 36 -11 10 -20 24 -20 32 0 7 -5 13 -12 13 -6 0 -8 3 -5 7 4
3 -1 12 -11 20 -10 9 -11 11 -2 7 8 -4 -5 13 -29 39 -24 25 -49 43 -55 40 -6
-3 -8 -3 -4 2 4 4 1 14 -7 21 -12 12 -6 22 41 70 31 31 53 58 50 62 -4 3 4 12
16 19 15 8 18 12 8 13 -9 0 -11 3 -5 8 39 26 98 178 96 242 0 8 -1 42 -2 74 0
39 -6 65 -16 74 -13 14 -13 17 -1 26 16 12 13 40 -3 31 -5 -4 -6 1 -3 10 4 8
0 23 -7 32 -8 9 -13 18 -11 20 8 11 -1 46 -16 61 -10 10 -16 24 -14 32 3 7 0
10 -7 6 -7 -4 -11 0 -11 11 0 10 -7 28 -15 39 -8 12 -11 24 -8 28 3 3 -1 6
-10 6 -9 0 -17 5 -17 10 0 6 -7 10 -16 10 -8 0 -13 4 -9 9 3 5 -4 12 -15 16
-11 4 -18 11 -15 16 7 11 -94 76 -109 71 -6 -2 -8 0 -4 4 11 10 -23 33 -49 34
-13 0 -23 5 -23 11 0 6 -6 9 -14 6 -19 -7 -14 37 6 61 41 46 73 145 70 217 -3
85 -10 134 -22 170 -15 47 -44 87 -55 77 -3 -4 -6 -2 -5 3 1 6 2 15 1 22 -1
14 -70 83 -83 83 -9 0 -68 39 -78 51 -10 12 -111 31 -141 27 -23 -4 -35 1 -50
21 -11 14 -19 37 -19 51 2 33 -10 71 -21 65 -4 -3 -7 3 -7 12 1 34 -11 72 -29
91 -35 37 -78 97 -75 105 1 5 -2 5 -8 2 -6 -4 -19 0 -28 8 -28 23 -116 72
-108 59 4 -7 2 -12 -3 -12 -6 0 -11 6 -11 14 0 11 -14 17 -65 26 -2 1 -18 5
-35 10 -21 6 -30 5 -30 -3 0 -8 -3 -8 -9 1 -6 9 -32 13 -94 11 -48 -1 -88 -3
-89 -5z m302 -218 c25 -12 44 -28 42 -35 -1 -7 2 -10 7 -7 9 6 24 -10 60 -62
8 -11 13 -23 12 -26 -1 -3 6 -20 15 -37 24 -47 22 -218 -2 -236 -22 -16 -48
-17 -38 -1 5 7 3 8 -6 3 -8 -5 -52 -8 -99 -7 -56 1 -88 -3 -93 -11 -17 -27
-26 48 -27 231 -1 135 2 198 10 208 15 18 59 10 119 -20z m180 -396 c0 -5 -2
-10 -4 -10 -3 0 -8 5 -11 10 -3 6 -1 10 4 10 6 0 11 -4 11 -10z m203 -1049 c4
-1 26 -19 47 -41 30 -31 40 -49 40 -73 0 -88 -46 -152 -116 -163 -96 -14 -149
30 -158 131 -4 58 8 94 42 119 27 21 83 35 117 30 11 -1 24 -3 28 -3z m-516
-38 c-3 -10 -5 -4 -5 12 0 17 2 24 5 18 2 -7 2 -21 0 -30z m890 -661 c10 -11
26 -22 36 -25 10 -4 15 -12 12 -18 -4 -6 2 -13 14 -16 11 -3 19 -9 16 -13 -3
-5 -1 -11 5 -15 15 -10 42 -65 31 -65 -5 0 -13 9 -16 20 -4 11 -32 48 -62 81
l-56 60 -38 -37 c-21 -21 -41 -35 -44 -32 -6 6 65 78 77 78 4 0 15 -8 25 -18z
m-1057 -82 c0 -5 -4 -10 -10 -10 -5 0 -10 5 -10 10 0 6 5 10 10 10 6 0 10 -4
10 -10z m1093 -100 c8 0 18 -8 22 -17 5 -15 4 -16 -6 -5 -7 6 -23 12 -35 12
-12 0 -25 7 -28 16 -3 8 -10 12 -16 9 -5 -3 -10 1 -10 10 0 23 -27 49 -33 32
-3 -6 -6 -3 -6 9 -1 11 -7 26 -13 34 -7 8 15 -11 49 -43 34 -31 68 -57 76 -57z
m-383 31 c0 -6 14 -6 36 1 36 9 36 9 103 -61 37 -39 63 -71 57 -71 -19 0 71
-60 112 -74 22 -8 42 -13 44 -12 1 2 24 6 50 9 41 6 49 4 59 -14 9 -18 7 -25
-15 -48 -14 -15 -26 -34 -26 -42 0 -8 -18 -26 -39 -39 -21 -14 -37 -28 -35
-31 2 -4 -8 -10 -21 -13 -14 -4 -23 -11 -20 -16 7 -12 11 -11 -88 -13 -42 -1
-77 1 -77 6 0 4 -3 6 -7 5 -5 -1 -22 4 -39 12 -26 11 -34 24 -49 71 -17 58
-37 80 -82 91 -17 5 -23 2 -24 -10 -1 -15 -2 -15 -6 1 -6 21 -5 21 -59 -3 -25
-12 -48 -29 -51 -38 -8 -20 -28 -42 -39 -42 -13 0 -83 -74 -78 -82 3 -4 2 -8
-3 -8 -12 0 -203 -187 -203 -199 0 -6 -4 -10 -8 -9 -11 4 -122 -110 -122 -123
0 -6 -4 -7 -10 -4 -5 3 -10 3 -10 -2 0 -4 -14 -23 -31 -41 l-30 -32 1 -248 c2
-288 2 -291 -5 -301 -3 -7 -165 -8 -186 -3 -7 3 -35 74 -32 84 2 4 -2 8 -8 8
-5 0 -7 5 -3 11 12 21 13 193 0 208 -8 11 -8 13 1 8 9 -6 10 18 7 95 -6 112
-5 162 1 193 2 11 4 26 4 32 1 7 77 89 170 183 92 93 167 170 166 170 -2 0 39
41 90 92 52 51 91 96 89 100 -3 4 -1 8 5 8 11 0 91 78 151 147 19 21 45 38 63
42 55 11 197 12 197 2z m460 -46 c-7 -8 -16 -12 -21 -9 -14 8 -10 24 6 24 8 0
15 6 16 13 0 9 2 9 6 -1 3 -7 -1 -19 -7 -27z m-1400 -45 c0 -5 -4 -10 -10 -10
-5 0 -10 5 -10 10 0 6 5 10 10 10 6 0 10 -4 10 -10z m147 -296 c-3 -3 -12 -4
-19 -1 -8 3 -5 6 6 6 11 1 17 -2 13 -5z m783 -153 c44 -43 80 -83 80 -90 0 -6
3 -11 8 -11 9 0 39 -65 48 -102 3 -16 10 -28 16 -28 5 0 6 -5 3 -11 -12 -19
-17 -72 -6 -65 6 4 7 -4 1 -23 -4 -16 -6 -32 -3 -34 2 -3 -5 -23 -17 -46 -11
-23 -18 -41 -15 -41 3 0 -3 -10 -15 -22 -11 -12 -20 -25 -20 -28 0 -13 -45
-57 -77 -75 -18 -10 -30 -22 -27 -27 3 -4 -2 -8 -11 -8 -10 0 -13 -5 -9 -12 4
-7 3 -8 -4 -4 -6 4 -28 0 -48 -9 -43 -18 -58 -19 -48 -4 4 7 -1 7 -16 -1 -21
-11 -348 -16 -359 -4 -9 9 -8 259 2 279 5 11 17 27 26 36 9 9 28 30 44 48 15
17 32 31 37 31 6 0 33 -22 60 -48 35 -34 50 -56 50 -75 0 -43 19 -73 56 -86
19 -7 32 -16 29 -20 -2 -5 17 -4 43 1 71 15 143 98 125 144 -3 8 -9 12 -13 9
-5 -3 -12 -1 -15 5 -4 6 -1 9 6 8 6 -2 14 3 17 11 2 8 0 11 -6 7 -5 -3 -9 2
-8 10 1 21 -59 56 -101 59 -18 1 -39 8 -47 15 -9 6 -20 9 -25 5 -6 -3 -8 0 -5
8 2 7 -7 22 -21 33 -33 25 -32 46 8 80 17 16 33 32 35 36 6 14 124 128 133
128 5 0 45 -35 89 -79z m-640 -269 c0 -5 -7 -9 -15 -9 -8 0 -12 4 -9 9 3 4 9
8 15 8 5 0 9 -4 9 -8z"/>
<path d="M1912 3890 c0 -14 2 -19 5 -12 2 6 2 18 0 25 -3 6 -5 1 -5 -13z"/>
<path d="M1912 3830 c0 -14 2 -19 5 -12 2 6 2 18 0 25 -3 6 -5 1 -5 -13z"/>
<path d="M3875 2590 c3 -5 8 -10 11 -10 2 0 4 5 4 10 0 6 -5 10 -11 10 -5 0
-7 -4 -4 -10z"/>
</g>
</svg>
